PathFileType  4	(X/Y/Z)
DataRate	CameraRate	NumFrames	NumMarkers	Units	OrigDataRate	OrigDataStartFrame	OrigNumFrames
  200.0 	  200.0 	   4 	     50 	mm 	  200.0 	      1054 	   1204
Frame#	Time	R.Shoulder			R.Clavicle			R.Bicep			R.Elbow			R.Forearm			R.Wrist			L.Shoulder			L.Clavicle			L.Scapula			L.Bicep			L.Elbow			L.Forearm			L.Wrist			R.ASIS			R.PSIS			S2			L.PSIS			L.ASIS			R.TH1			R.TH2			R.TH3			R.Knee			R.SH1			R.SH2			R.SH3			R.SH4			R.Ankle			R.Heel			R.MT5			L.TH1			L.TH2			L.TH3			L.TH4			L.Knee			L.SH1			L.SH2			L.SH3			L.Ankle			L.Heel			L.MT5			R.Melb			R.GTR			R.Mkn			R.Man			R.MT0			L.Melb			L.GTR			L.Mkn			L.Man			L.MT0			
		X1	Y1	Z1	X2	Y2	Z2	X3	Y3	Z3	X4	Y4	Z4	X5	Y5	Z5	X6	Y6	Z6	X7	Y7	Z7	X8	Y8	Z8	X9	Y9	Z9	X10	Y10	Z10	X11	Y11	Z11	X12	Y12	Z12	X13	Y13	Z13	X14	Y14	Z14	X15	Y15	Z15	X16	Y16	Z16	X17	Y17	Z17	X18	Y18	Z18	X19	Y19	Z19	X20	Y20	Z20	X21	Y21	Z21	X22	Y22	Z22	X23	Y23	Z23	X24	Y24	Z24	X25	Y25	Z25	X26	Y26	Z26	X27	Y27	Z27	X28	Y28	Z28	X29	Y29	Z29	X30	Y30	Z30	X31	Y31	Z31	X32	Y32	Z32	X33	Y33	Z33	X34	Y34	Z34	X35	Y35	Z35	X36	Y36	Z36	X37	Y37	Z37	X38	Y38	Z38	X39	Y39	Z39	X40	Y40	Z40	X41	Y41	Z41	X42	Y42	Z42	X43	Y43	Z43	X44	Y44	Z44	X45	Y45	Z45	X46	Y46	Z46	X47	Y47	Z47	X48	Y48	Z48	X49	Y49	Z49	X50	Y50	Z50	

1054	5.26500	535.965	1605.745	-1931.580	616.464	1600.704	-2081.250	586.123	1397.310	-1883.517	468.605	1306.547	-1853.134	549.300	1247.544	-1763.335	502.538	1132.947	-1731.790	568.647	1610.385	-2307.435	626.087	1601.289	-2138.792	443.407	1576.430	-2214.948	614.303	1455.187	-2354.465	519.904	1316.931	-2413.410	585.928	1255.125	-2481.660	551.252	1136.158	-2505.918	658.678	1151.198	-1987.270	428.344	1226.798	-2067.799	419.729	1220.707	-2120.587	433.067	1228.881	-2173.861	657.170	1140.675	-2242.332	596.486	945.342	-1905.774	445.921	959.030	-1935.168	442.334	883.931	-1942.431	494.647	736.488	-1913.305	519.508	604.143	-1880.850	519.567	529.535	-1887.658	410.192	610.193	-1928.909	408.721	533.922	-1924.323	482.003	333.184	-1893.896	416.029	299.465	-1943.521	601.414	276.135	-1863.860	600.137	907.532	-2311.940	603.303	826.414	-2298.844	451.671	908.419	-2306.036	446.274	831.983	-2300.412	497.696	727.255	-2312.644	540.113	641.663	-2333.970	428.634	642.394	-2319.795	423.757	566.547	-2335.850	505.411	338.161	-2357.430	421.720	297.102	-2325.821	604.752	278.550	-2384.204	536.434	1274.496	-1926.908	537.779	1094.474	-1892.389	511.179	693.921	-2077.607	506.485	337.180	-1984.796	618.338	279.274	-1978.546	592.409	1272.281	-2322.478	527.413	1112.280	-2323.608	497.932	694.910	-2146.544	511.309	333.949	-2261.936	624.114	279.310	-2261.495
1055	5.27000	535.953	1605.758	-1931.590	616.455	1600.712	-2081.268	586.136	1397.351	-1883.512	468.590	1306.540	-1853.102	549.299	1247.565	-1763.323	502.516	1132.992	-1731.799	568.657	1610.374	-2307.446	626.086	1601.293	-2138.796	443.416	1576.423	-2214.970	614.312	1455.187	-2354.467	519.914	1316.949	-2413.427	585.965	1255.171	-2481.695	551.290	1136.139	-2505.938	658.677	1151.197	-1987.259	428.343	1226.799	-2067.795	419.732	1220.675	-2120.575	433.056	1228.872	-2173.848	657.166	1140.681	-2242.329	596.486	945.342	-1905.772	445.922	959.025	-1935.160	442.339	883.924	-1942.437	494.647	736.485	-1913.306	519.517	604.139	-1880.836	519.562	529.533	-1887.664	410.206	610.193	-1928.904	408.725	533.917	-1924.319	482.009	333.181	-1893.897	416.029	299.466	-1943.518	601.410	276.140	-1863.860	600.131	907.526	-2311.937	603.301	826.408	-2298.835	451.678	908.401	-2306.031	446.275	831.980	-2300.413	497.690	727.254	-2312.645	540.111	641.662	-2333.970	428.633	642.394	-2319.794	423.747	566.537	-2335.850	505.411	338.159	-2357.424	421.719	297.101	-2325.821	604.744	278.549	-2384.206	536.405	1274.506	-1926.910	537.775	1094.475	-1892.382	511.200	693.912	-2077.610	506.481	337.177	-1984.796	618.343	279.275	-1978.547	592.433	1272.250	-2322.485	527.415	1112.284	-2323.587	497.599	694.871	-2146.692	511.309	333.952	-2261.931	624.114	279.313	-2261.496
1056	5.27500	535.942	1605.771	-1931.600	616.443	1600.719	-2081.286	586.150	1397.393	-1883.508	468.577	1306.527	-1853.065	549.303	1247.588	-1763.309	502.496	1133.037	-1731.803	568.666	1610.362	-2307.458	626.083	1601.296	-2138.800	443.426	1576.415	-2214.990	614.321	1455.187	-2354.470	519.925	1316.969	-2413.446	586.002	1255.221	-2481.731	551.328	1136.120	-2505.957	658.677	1151.196	-1987.251	428.344	1226.801	-2067.793	419.736	1220.645	-2120.562	433.045	1228.863	-2173.835	657.163	1140.686	-2242.327	596.486	945.341	-1905.771	445.925	959.021	-1935.154	442.344	883.917	-1942.443	494.647	736.482	-1913.306	519.528	604.136	-1880.823	519.559	529.532	-1887.669	410.219	610.193	-1928.898	408.729	533.912	-1924.315	482.015	333.179	-1893.898	416.030	299.467	-1943.516	601.406	276.144	-1863.859	600.126	907.521	-2311.934	603.300	826.401	-2298.826	451.685	908.384	-2306.025	446.275	831.978	-2300.414	497.685	727.253	-2312.647	540.109	641.661	-2333.971	428.633	642.395	-2319.794	423.737	566.528	-2335.850	505.410	338.158	-2357.419	421.719	297.100	-2325.821	604.737	278.548	-2384.207	536.380	1274.516	-1926.911	537.771	1094.476	-1892.376	511.221	693.903	-2077.613	506.476	337.174	-1984.796	618.351	279.277	-1978.550	592.457	1272.222	-2322.492	527.415	1112.290	-2323.568	497.284	694.834	-2146.831	511.308	333.955	-2261.927	624.114	279.317	-2261.498
1057	5.28000	535.931	1605.782	-1931.610	616.429	1600.725	-2081.305	586.166	1397.433	-1883.504	468.567	1306.510	-1853.020	549.314	1247.613	-1763.292	502.479	1133.081	-1731.802	568.674	1610.351	-2307.469	626.078	1601.299	-2138.804	443.437	1576.407	-2215.009	614.329	1455.189	-2354.472	519.935	1316.990	-2413.469	586.039	1255.275	-2481.769	551.365	1136.102	-2505.976	658.676	1151.196	-1987.243	428.345	1226.803	-2067.791	419.739	1220.616	-2120.549	433.035	1228.855	-2173.823	657.160	1140.691	-2242.324	596.487	945.340	-1905.771	445.928	959.016	-1935.147	442.349	883.912	-1942.449	494.647	736.479	-1913.306	519.539	604.135	-1880.809	519.556	529.531	-1887.673	410.233	610.193	-1928.893	408.733	533.907	-1924.311	482.019	333.176	-1893.899	416.030	299.467	-1943.516	601.401	276.149	-1863.859	600.121	907.517	-2311.932	603.298	826.395	-2298.818	451.691	908.367	-2306.020	446.276	831.977	-2300.416	497.680	727.253	-2312.649	540.108	641.661	-2333.972	428.633	642.395	-2319.793	423.729	566.521	-2335.849	505.409	338.157	-2357.415	421.718	297.099	-2325.821	604.729	278.546	-2384.208	536.358	1274.526	-1926.910	537.767	1094.477	-1892.370	511.239	693.895	-2077.615	506.472	337.171	-1984.795	618.362	279.279	-1978.553	592.480	1272.196	-2322.499	527.414	1112.296	-2323.552	496.996	694.800	-2146.958	511.308	333.957	-2261.924	624.113	279.321	-2261.499
